<svg xmlns="http://www.w3.org/2000/svg" xmlns:xlink="http://www.w3.org/1999/xlink" width="1472" zoomAndPan="magnify" viewBox="0 0 1104 299.999988" height="400" preserveAspectRatio="xMidYMid meet" version="1.0"><defs><g/></defs><g fill="#0d2443" fill-opacity="1"><g transform="translate(31.321835, 150.272193)"><g><path d="M 34.53125 -79.6875 C 38.769531 -79.6875 42.910156 -79.066406 46.953125 -77.828125 C 51.003906 -76.597656 54.007812 -75.382812 55.96875 -74.1875 L 58.8125 -72.28125 L 51.609375 -58.046875 C 51.035156 -58.429688 50.242188 -58.921875 49.234375 -59.515625 C 48.222656 -60.117188 46.320312 -60.925781 43.53125 -61.9375 C 40.75 -62.945312 38.160156 -63.453125 35.765625 -63.453125 C 32.785156 -63.453125 30.488281 -62.820312 28.875 -61.5625 C 27.269531 -60.300781 26.46875 -58.59375 26.46875 -56.4375 C 26.46875 -55.363281 26.847656 -54.367188 27.609375 -53.453125 C 28.367188 -52.535156 29.664062 -51.554688 31.5 -50.515625 C 33.332031 -49.472656 34.941406 -48.632812 36.328125 -48 C 37.722656 -47.363281 39.875 -46.414062 42.78125 -45.15625 C 47.84375 -43 52.160156 -40.070312 55.734375 -36.375 C 59.304688 -32.675781 61.09375 -28.488281 61.09375 -23.8125 C 61.09375 -19.320312 60.285156 -15.398438 58.671875 -12.046875 C 57.054688 -8.691406 54.84375 -6.066406 52.03125 -4.171875 C 49.21875 -2.273438 46.101562 -0.867188 42.6875 0.046875 C 39.269531 0.960938 35.570312 1.421875 31.59375 1.421875 C 28.175781 1.421875 24.820312 1.070312 21.53125 0.375 C 18.238281 -0.3125 15.484375 -1.175781 13.265625 -2.21875 C 11.054688 -3.269531 9.066406 -4.300781 7.296875 -5.3125 C 5.523438 -6.320312 4.234375 -7.175781 3.421875 -7.875 L 2.1875 -8.921875 L 11.09375 -23.90625 C 11.851562 -23.269531 12.894531 -22.460938 14.21875 -21.484375 C 15.550781 -20.503906 17.910156 -19.191406 21.296875 -17.546875 C 24.679688 -15.898438 27.671875 -15.078125 30.265625 -15.078125 C 37.785156 -15.078125 41.546875 -17.640625 41.546875 -22.765625 C 41.546875 -23.835938 41.273438 -24.832031 40.734375 -25.75 C 40.203125 -26.664062 39.253906 -27.582031 37.890625 -28.5 C 36.535156 -29.414062 35.332031 -30.144531 34.28125 -30.6875 C 33.238281 -31.226562 31.53125 -32.050781 29.15625 -33.15625 C 26.789062 -34.257812 25.039062 -35.097656 23.90625 -35.671875 C 19.164062 -38.003906 15.5 -40.925781 12.90625 -44.4375 C 10.3125 -47.945312 9.015625 -51.726562 9.015625 -55.78125 C 9.015625 -62.800781 11.601562 -68.539062 16.78125 -73 C 21.96875 -77.457031 27.882812 -79.6875 34.53125 -79.6875 Z M 34.53125 -79.6875 "/></g></g></g><g fill="#0d2443" fill-opacity="1"><g transform="translate(97.62703, 150.272193)"><g><path d="M 50.46875 -78.265625 L 50.46875 -62.609375 L 23.53125 -62.609375 L 23.53125 -47.046875 L 49.328125 -47.046875 L 49.328125 -31.40625 L 23.53125 -31.40625 L 23.53125 -15.65625 L 50.46875 -15.65625 L 50.46875 0 L 5.6875 0 L 5.6875 -78.265625 Z M 50.46875 -78.265625 "/></g></g></g><g fill="#0d2443" fill-opacity="1"><g transform="translate(155.205384, 150.272193)"><g><path d="M 5.6875 -78.265625 L 33.671875 -78.265625 C 41.203125 -78.265625 47.335938 -76.253906 52.078125 -72.234375 C 56.816406 -68.222656 59.1875 -62.484375 59.1875 -55.015625 C 59.1875 -49.265625 57.75 -44.441406 54.875 -40.546875 C 52 -36.660156 48.09375 -33.925781 43.15625 -32.34375 L 70.09375 0 L 47.421875 0 L 23.53125 -30.921875 L 23.53125 0 L 5.6875 0 Z M 23.53125 -43.546875 L 25.609375 -43.546875 C 27.253906 -43.546875 28.644531 -43.578125 29.78125 -43.640625 C 30.925781 -43.703125 32.222656 -43.921875 33.671875 -44.296875 C 35.128906 -44.679688 36.300781 -45.21875 37.1875 -45.90625 C 38.070312 -46.601562 38.828125 -47.613281 39.453125 -48.9375 C 40.085938 -50.269531 40.40625 -51.882812 40.40625 -53.78125 C 40.40625 -55.675781 40.085938 -57.285156 39.453125 -58.609375 C 38.828125 -59.941406 38.070312 -60.957031 37.1875 -61.65625 C 36.300781 -62.351562 35.128906 -62.890625 33.671875 -63.265625 C 32.222656 -63.648438 30.925781 -63.875 29.78125 -63.9375 C 28.644531 -64 27.253906 -64.03125 25.609375 -64.03125 L 23.53125 -64.03125 Z M 23.53125 -43.546875 "/></g></g></g><g fill="#0d2443" fill-opacity="1"><g transform="translate(225.684268, 150.272193)"><g><path d="M 30.171875 0 L -2.65625 -78.265625 L 17.453125 -78.265625 L 37.1875 -26.84375 L 56.921875 -78.265625 L 77.03125 -78.265625 L 44.203125 0 Z M 30.171875 0 "/></g></g></g><g fill="#0d2443" fill-opacity="1"><g transform="translate(302.61341, 150.272193)"><g><path d="M 23.53125 -78.265625 L 23.53125 0 L 5.6875 0 L 5.6875 -78.265625 Z M 23.53125 -78.265625 "/></g></g></g><g fill="#0d2443" fill-opacity="1"><g transform="translate(334.390719, 150.272193)"><g><path d="M 47.328125 -16.125 C 50.046875 -16.125 52.6875 -16.535156 55.25 -17.359375 C 57.8125 -18.179688 59.695312 -18.972656 60.90625 -19.734375 L 62.703125 -20.96875 L 70.296875 -5.78125 C 70.035156 -5.59375 69.679688 -5.335938 69.234375 -5.015625 C 68.796875 -4.703125 67.769531 -4.117188 66.15625 -3.265625 C 64.550781 -2.410156 62.832031 -1.664062 61 -1.03125 C 59.164062 -0.40625 56.757812 0.15625 53.78125 0.65625 C 50.8125 1.164062 47.742188 1.421875 44.578125 1.421875 C 37.304688 1.421875 30.414062 -0.363281 23.90625 -3.9375 C 17.394531 -7.507812 12.144531 -12.425781 8.15625 -18.6875 C 4.175781 -24.945312 2.1875 -31.710938 2.1875 -38.984375 C 2.1875 -44.484375 3.351562 -49.765625 5.6875 -54.828125 C 8.03125 -59.890625 11.144531 -64.222656 15.03125 -67.828125 C 18.925781 -71.429688 23.460938 -74.304688 28.640625 -76.453125 C 33.828125 -78.609375 39.140625 -79.6875 44.578125 -79.6875 C 49.640625 -79.6875 54.304688 -79.082031 58.578125 -77.875 C 62.847656 -76.675781 65.867188 -75.476562 67.640625 -74.28125 L 70.296875 -72.46875 L 62.703125 -57.296875 C 62.253906 -57.671875 61.585938 -58.128906 60.703125 -58.671875 C 59.816406 -59.210938 58.046875 -59.925781 55.390625 -60.8125 C 52.734375 -61.695312 50.046875 -62.140625 47.328125 -62.140625 C 43.035156 -62.140625 39.179688 -61.441406 35.765625 -60.046875 C 32.347656 -58.648438 29.640625 -56.8125 27.640625 -54.53125 C 25.648438 -52.257812 24.132812 -49.8125 23.09375 -47.1875 C 22.050781 -44.5625 21.53125 -41.890625 21.53125 -39.171875 C 21.53125 -33.234375 23.757812 -27.90625 28.21875 -23.1875 C 32.675781 -18.476562 39.046875 -16.125 47.328125 -16.125 Z M 47.328125 -16.125 "/></g></g></g><g fill="#0d2443" fill-opacity="1"><g transform="translate(408.379318, 150.272193)"><g><path d="M 50.46875 -78.265625 L 50.46875 -62.609375 L 23.53125 -62.609375 L 23.53125 -47.046875 L 49.328125 -47.046875 L 49.328125 -31.40625 L 23.53125 -31.40625 L 23.53125 -15.65625 L 50.46875 -15.65625 L 50.46875 0 L 5.6875 0 L 5.6875 -78.265625 Z M 50.46875 -78.265625 "/></g></g></g><g fill="#0d2443" fill-opacity="1"><g transform="translate(465.957686, 150.272193)"><g/></g></g><g fill="#0d2443" fill-opacity="1"><g transform="translate(494.414991, 150.272193)"><g><path d="M 45.4375 -78.265625 L 77.03125 0 L 57.859375 0 L 52.078125 -15.65625 L 22.296875 -15.65625 L 16.5 0 L -2.65625 0 L 28.9375 -78.265625 Z M 46 -31.296875 L 37.28125 -54.0625 L 37.09375 -54.0625 L 28.359375 -31.296875 Z M 46 -31.296875 "/></g></g></g><g fill="#0d2443" fill-opacity="1"><g transform="translate(571.344173, 150.272193)"><g><path d="M 65.828125 -78.265625 L 65.828125 -27.796875 C 65.828125 -18.179688 63.234375 -10.90625 58.046875 -5.96875 C 52.867188 -1.039062 45.28125 1.421875 35.28125 1.421875 C 25.289062 1.421875 17.703125 -1.039062 12.515625 -5.96875 C 7.335938 -10.90625 4.75 -18.179688 4.75 -27.796875 L 4.75 -78.265625 L 22.578125 -78.265625 L 22.578125 -33.015625 C 22.578125 -26.691406 23.570312 -22.296875 25.5625 -19.828125 C 27.550781 -17.359375 30.789062 -16.125 35.28125 -16.125 C 39.769531 -16.125 43.007812 -17.359375 45 -19.828125 C 47 -22.296875 48 -26.691406 48 -33.015625 L 48 -78.265625 Z M 65.828125 -78.265625 "/></g></g></g><g fill="#0d2443" fill-opacity="1"><g transform="translate(644.479034, 150.272193)"><g><path d="M 0.765625 -62.609375 L 0.765625 -78.265625 L 55.78125 -78.265625 L 55.78125 -62.609375 L 37.1875 -62.609375 L 37.1875 0 L 19.34375 0 L 19.34375 -62.609375 Z M 0.765625 -62.609375 "/></g></g></g><g fill="#0d2443" fill-opacity="1"><g transform="translate(703.575088, 150.272193)"><g><path d="M 2.1875 -39.171875 C 2.1875 -50.492188 6.039062 -60.078125 13.75 -67.921875 C 21.46875 -75.765625 30.765625 -79.6875 41.640625 -79.6875 C 52.578125 -79.6875 61.875 -75.78125 69.53125 -67.96875 C 77.1875 -60.15625 81.015625 -50.554688 81.015625 -39.171875 C 81.015625 -27.722656 77.25 -18.09375 69.71875 -10.28125 C 62.195312 -2.476562 52.835938 1.421875 41.640625 1.421875 C 30.191406 1.421875 20.753906 -2.445312 13.328125 -10.1875 C 5.898438 -17.9375 2.1875 -27.597656 2.1875 -39.171875 Z M 21.4375 -39.171875 C 21.4375 -35.066406 22.066406 -31.320312 23.328125 -27.9375 C 24.597656 -24.550781 26.8125 -21.6875 29.96875 -19.34375 C 33.132812 -17.007812 37.023438 -15.84375 41.640625 -15.84375 C 48.285156 -15.84375 53.296875 -18.117188 56.671875 -22.671875 C 60.054688 -27.222656 61.75 -32.722656 61.75 -39.171875 C 61.75 -45.554688 60.023438 -51.039062 56.578125 -55.625 C 53.128906 -60.21875 48.148438 -62.515625 41.640625 -62.515625 C 35.191406 -62.515625 30.210938 -60.21875 26.703125 -55.625 C 23.191406 -51.039062 21.4375 -45.554688 21.4375 -39.171875 Z M 21.4375 -39.171875 "/></g></g></g><g fill="#0d2443" fill-opacity="1"><g transform="translate(789.325939, 150.272193)"><g><path d="M 70.390625 0 L 66.6875 -46.390625 L 66.21875 -46.390625 L 50.1875 -0.46875 L 39.5625 -0.46875 L 23.53125 -46.390625 L 23.046875 -46.390625 L 19.34375 0 L 1.515625 0 L 8.53125 -78.265625 L 27.515625 -78.265625 L 44.875 -33.109375 L 62.234375 -78.265625 L 81.203125 -78.265625 L 88.21875 0 Z M 70.390625 0 "/></g></g></g><g fill="#0d2443" fill-opacity="1"><g transform="translate(881.621876, 150.272193)"><g><path d="M 45.4375 -78.265625 L 77.03125 0 L 57.859375 0 L 52.078125 -15.65625 L 22.296875 -15.65625 L 16.5 0 L -2.65625 0 L 28.9375 -78.265625 Z M 46 -31.296875 L 37.28125 -54.0625 L 37.09375 -54.0625 L 28.359375 -31.296875 Z M 46 -31.296875 "/></g></g></g><g fill="#0d2443" fill-opacity="1"><g transform="translate(958.551059, 150.272193)"><g><path d="M 0.765625 -62.609375 L 0.765625 -78.265625 L 55.78125 -78.265625 L 55.78125 -62.609375 L 37.1875 -62.609375 L 37.1875 0 L 19.34375 0 L 19.34375 -62.609375 Z M 0.765625 -62.609375 "/></g></g></g><g fill="#0d2443" fill-opacity="1"><g transform="translate(1017.647113, 150.272193)"><g><path d="M 50.46875 -78.265625 L 50.46875 -62.609375 L 23.53125 -62.609375 L 23.53125 -47.046875 L 49.328125 -47.046875 L 49.328125 -31.40625 L 23.53125 -31.40625 L 23.53125 -15.65625 L 50.46875 -15.65625 L 50.46875 0 L 5.6875 0 L 5.6875 -78.265625 Z M 50.46875 -78.265625 "/></g></g></g><g fill="#192536" fill-opacity="1"><g transform="translate(134.78573, 216.936438)"><g><path d="M 19.046875 -23.671875 C 18.015625 -24.234375 16.910156 -24.6875 15.734375 -25.03125 C 14.566406 -25.375 13.46875 -25.546875 12.4375 -25.546875 C 10.863281 -25.546875 9.617188 -25.191406 8.703125 -24.484375 C 7.785156 -23.785156 7.328125 -22.828125 7.328125 -21.609375 C 7.328125 -20.410156 7.863281 -19.429688 8.9375 -18.671875 C 10.019531 -17.910156 11.554688 -17.160156 13.546875 -16.421875 C 15.035156 -15.890625 16.289062 -15.3125 17.3125 -14.6875 C 18.34375 -14.0625 19.195312 -13.195312 19.875 -12.09375 C 20.550781 -10.988281 20.890625 -9.585938 20.890625 -7.890625 C 20.890625 -6.347656 20.503906 -4.953125 19.734375 -3.703125 C 18.960938 -2.453125 17.863281 -1.46875 16.4375 -0.75 C 15.019531 -0.0390625 13.351562 0.3125 11.4375 0.3125 C 9.65625 0.3125 7.941406 0.03125 6.296875 -0.53125 C 4.648438 -1.101562 3.203125 -1.828125 1.953125 -2.703125 L 3.671875 -5.78125 C 4.648438 -5.03125 5.828125 -4.394531 7.203125 -3.875 C 8.585938 -3.363281 9.878906 -3.109375 11.078125 -3.109375 C 12.617188 -3.109375 13.96875 -3.503906 15.125 -4.296875 C 16.28125 -5.097656 16.859375 -6.285156 16.859375 -7.859375 C 16.859375 -9.179688 16.375 -10.234375 15.40625 -11.015625 C 14.4375 -11.804688 13.070312 -12.546875 11.3125 -13.234375 C 9.695312 -13.847656 8.347656 -14.445312 7.265625 -15.03125 C 6.191406 -15.613281 5.269531 -16.414062 4.5 -17.4375 C 3.726562 -18.457031 3.34375 -19.738281 3.34375 -21.28125 C 3.34375 -23.539062 4.132812 -25.367188 5.71875 -26.765625 C 7.300781 -28.160156 9.351562 -28.898438 11.875 -28.984375 C 14.988281 -28.984375 17.875 -28.210938 20.53125 -26.671875 Z M 19.046875 -23.671875 "/></g></g></g><g fill="#192536" fill-opacity="1"><g transform="translate(157.981968, 216.936438)"><g><path d="M 22.875 -28.8125 L 22.875 -25.109375 L 8.015625 -25.109375 L 8.015625 -16.34375 L 21.28125 -16.34375 L 21.28125 -12.640625 L 8.015625 -12.640625 L 8.015625 -3.75 L 23.4375 -3.75 L 23.4375 0 L 4.140625 0 L 4.140625 -28.8125 Z M 22.875 -28.8125 "/></g></g></g><g fill="#192536" fill-opacity="1"><g transform="translate(184.00798, 216.936438)"><g><path d="M 20.015625 0 L 13.234375 -10.640625 C 13.023438 -10.617188 12.707031 -10.609375 12.28125 -10.609375 L 8.015625 -10.609375 L 8.015625 0 L 4.140625 0 L 4.140625 -28.8125 L 11.84375 -28.8125 C 13.800781 -28.8125 15.550781 -28.46875 17.09375 -27.78125 C 18.632812 -27.09375 19.84375 -26.078125 20.71875 -24.734375 C 21.601562 -23.390625 22.046875 -21.773438 22.046875 -19.890625 C 22.046875 -18.109375 21.648438 -16.472656 20.859375 -14.984375 C 20.078125 -13.492188 18.878906 -12.363281 17.265625 -11.59375 L 24.515625 0 Z M 12.203125 -14.34375 C 14.273438 -14.34375 15.769531 -14.890625 16.6875 -15.984375 C 17.601562 -17.078125 18.0625 -18.328125 18.0625 -19.734375 C 18.0625 -20.578125 17.867188 -21.410156 17.484375 -22.234375 C 17.097656 -23.066406 16.484375 -23.753906 15.640625 -24.296875 C 14.804688 -24.835938 13.75 -25.109375 12.46875 -25.109375 L 8.015625 -25.109375 L 8.015625 -14.34375 Z M 12.203125 -14.34375 "/></g></g></g><g fill="#192536" fill-opacity="1"><g transform="translate(210.312989, 216.936438)"><g><path d="M 27.0625 -28.8125 L 14.34375 1.359375 L 1.640625 -28.8125 L 6.21875 -28.8125 L 14.515625 -8.046875 L 22.515625 -28.8125 Z M 27.0625 -28.8125 "/></g></g></g><g fill="#192536" fill-opacity="1"><g transform="translate(238.969507, 216.936438)"><g><path d="M 8.015625 -28.8125 L 8.015625 0 L 4.140625 0 L 4.140625 -28.8125 Z M 8.015625 -28.8125 "/></g></g></g><g fill="#192536" fill-opacity="1"><g transform="translate(251.125609, 216.936438)"><g><path d="M 16.625 1.828125 C 18.082031 1.804688 19.25 2.097656 20.125 2.703125 C 21 3.316406 21.4375 4.179688 21.4375 5.296875 C 21.4375 6.578125 20.910156 7.546875 19.859375 8.203125 C 18.816406 8.867188 17.507812 9.203125 15.9375 9.203125 C 14.1875 9.203125 12.78125 8.695312 11.71875 7.6875 L 12.921875 6.140625 C 13.210938 6.453125 13.585938 6.703125 14.046875 6.890625 C 14.515625 7.078125 15.023438 7.171875 15.578125 7.171875 C 16.296875 7.171875 16.925781 7.007812 17.46875 6.6875 C 18.019531 6.375 18.296875 5.9375 18.296875 5.375 C 18.296875 4.875 18.085938 4.453125 17.671875 4.109375 C 17.265625 3.765625 16.609375 3.59375 15.703125 3.59375 C 14.878906 3.59375 14.015625 3.75 13.109375 4.0625 L 12.4375 2.265625 L 14.703125 0.15625 C 12.210938 -0.1875 10.03125 -1.035156 8.15625 -2.390625 C 6.28125 -3.742188 4.84375 -5.453125 3.84375 -7.515625 C 2.851562 -9.578125 2.359375 -11.800781 2.359375 -14.1875 C 2.359375 -17.03125 2.96875 -19.585938 4.1875 -21.859375 C 5.40625 -24.128906 7.097656 -25.910156 9.265625 -27.203125 C 11.429688 -28.492188 13.882812 -29.140625 16.625 -29.140625 C 18.238281 -29.140625 19.75 -28.925781 21.15625 -28.5 C 22.570312 -28.070312 23.835938 -27.515625 24.953125 -26.828125 L 23.390625 -23.203125 C 21.191406 -24.691406 18.972656 -25.4375 16.734375 -25.4375 C 14.878906 -25.4375 13.160156 -24.941406 11.578125 -23.953125 C 9.992188 -22.972656 8.726562 -21.640625 7.78125 -19.953125 C 6.84375 -18.265625 6.375 -16.410156 6.375 -14.390625 C 6.375 -12.316406 6.804688 -10.441406 7.671875 -8.765625 C 8.535156 -7.097656 9.769531 -5.789062 11.375 -4.84375 C 12.988281 -3.894531 14.84375 -3.421875 16.9375 -3.421875 C 19.519531 -3.421875 21.765625 -4.15625 23.671875 -5.625 L 25.3125 -2.15625 C 24.40625 -1.570312 23.285156 -1.023438 21.953125 -0.515625 C 20.628906 -0.015625 19.1875 0.257812 17.625 0.3125 L 16.296875 1.875 C 16.378906 1.84375 16.488281 1.828125 16.625 1.828125 Z M 16.625 1.828125 "/></g></g></g><g fill="#192536" fill-opacity="1"><g transform="translate(278.785724, 216.936438)"><g><path d="M 2.359375 -14.390625 C 2.359375 -17.015625 3.019531 -19.457031 4.34375 -21.71875 C 5.675781 -23.976562 7.460938 -25.78125 9.703125 -27.125 C 11.953125 -28.46875 14.40625 -29.140625 17.0625 -29.140625 C 19.6875 -29.140625 22.128906 -28.46875 24.390625 -27.125 C 26.648438 -25.78125 28.453125 -23.976562 29.796875 -21.71875 C 31.140625 -19.457031 31.8125 -17.015625 31.8125 -14.390625 C 31.8125 -11.734375 31.144531 -9.273438 29.8125 -7.015625 C 28.488281 -4.753906 26.6875 -2.96875 24.40625 -1.65625 C 22.132812 -0.34375 19.6875 0.3125 17.0625 0.3125 C 14.40625 0.3125 11.945312 -0.335938 9.6875 -1.640625 C 7.425781 -2.941406 5.640625 -4.710938 4.328125 -6.953125 C 3.015625 -9.203125 2.359375 -11.679688 2.359375 -14.390625 Z M 6.34375 -14.34375 C 6.34375 -12.382812 6.816406 -10.566406 7.765625 -8.890625 C 8.722656 -7.210938 10.03125 -5.878906 11.6875 -4.890625 C 13.351562 -3.910156 15.171875 -3.421875 17.140625 -3.421875 C 19.109375 -3.421875 20.90625 -3.90625 22.53125 -4.875 C 24.164062 -5.851562 25.457031 -7.1875 26.40625 -8.875 C 27.351562 -10.5625 27.828125 -12.398438 27.828125 -14.390625 C 27.828125 -16.378906 27.347656 -18.222656 26.390625 -19.921875 C 25.429688 -21.628906 24.128906 -22.972656 22.484375 -23.953125 C 20.835938 -24.941406 19.03125 -25.4375 17.0625 -25.4375 C 15.09375 -25.4375 13.285156 -24.9375 11.640625 -23.9375 C 9.992188 -22.9375 8.695312 -21.585938 7.75 -19.890625 C 6.8125 -18.191406 6.34375 -16.34375 6.34375 -14.34375 Z M 6.34375 -14.34375 "/></g></g></g><g fill="#192536" fill-opacity="1"><g transform="translate(312.942379, 216.936438)"><g/></g></g><g fill="#192536" fill-opacity="1"><g transform="translate(325.536901, 216.936438)"><g><path d="M 4.140625 -28.8125 L 12.03125 -28.8125 C 15.625 -28.8125 18.59375 -28.097656 20.9375 -26.671875 C 23.289062 -25.253906 25.003906 -23.421875 26.078125 -21.171875 C 27.160156 -18.929688 27.703125 -16.566406 27.703125 -14.078125 C 27.703125 -11.285156 27.050781 -8.816406 25.75 -6.671875 C 24.445312 -4.535156 22.707031 -2.890625 20.53125 -1.734375 C 18.351562 -0.578125 15.988281 0 13.4375 0 L 4.140625 0 Z M 12.671875 -3.75 C 14.796875 -3.75 16.695312 -4.164062 18.375 -5 C 20.050781 -5.84375 21.359375 -7.0625 22.296875 -8.65625 C 23.242188 -10.25 23.71875 -12.144531 23.71875 -14.34375 C 23.71875 -16.601562 23.222656 -18.539062 22.234375 -20.15625 C 21.253906 -21.78125 19.945312 -23.007812 18.3125 -23.84375 C 16.675781 -24.6875 14.914062 -25.109375 13.03125 -25.109375 L 8.015625 -25.109375 L 8.015625 -3.75 Z M 12.671875 -3.75 "/></g></g></g><g fill="#192536" fill-opacity="1"><g transform="translate(355.588382, 216.936438)"><g><path d="M 22.875 -28.8125 L 22.875 -25.109375 L 8.015625 -25.109375 L 8.015625 -16.34375 L 21.28125 -16.34375 L 21.28125 -12.640625 L 8.015625 -12.640625 L 8.015625 -3.75 L 23.4375 -3.75 L 23.4375 0 L 4.140625 0 L 4.140625 -28.8125 Z M 22.875 -28.8125 "/></g></g></g><g fill="#192536" fill-opacity="1"><g transform="translate(381.614394, 216.936438)"><g/></g></g><g fill="#192536" fill-opacity="1"><g transform="translate(394.208916, 216.936438)"><g><path d="M 25.3125 -2.15625 C 24.382812 -1.539062 23.207031 -0.972656 21.78125 -0.453125 C 20.363281 0.0546875 18.816406 0.3125 17.140625 0.3125 C 14.191406 0.3125 11.59375 -0.335938 9.34375 -1.640625 C 7.101562 -2.941406 5.378906 -4.691406 4.171875 -6.890625 C 2.960938 -9.097656 2.359375 -11.53125 2.359375 -14.1875 C 2.359375 -17.03125 2.96875 -19.585938 4.1875 -21.859375 C 5.40625 -24.128906 7.097656 -25.910156 9.265625 -27.203125 C 11.429688 -28.492188 13.882812 -29.140625 16.625 -29.140625 C 18.238281 -29.140625 19.75 -28.925781 21.15625 -28.5 C 22.570312 -28.070312 23.835938 -27.515625 24.953125 -26.828125 L 23.390625 -23.203125 C 21.191406 -24.691406 18.972656 -25.4375 16.734375 -25.4375 C 14.878906 -25.4375 13.160156 -24.941406 11.578125 -23.953125 C 9.992188 -22.972656 8.726562 -21.640625 7.78125 -19.953125 C 6.84375 -18.265625 6.375 -16.410156 6.375 -14.390625 C 6.375 -12.316406 6.804688 -10.441406 7.671875 -8.765625 C 8.535156 -7.097656 9.769531 -5.789062 11.375 -4.84375 C 12.988281 -3.894531 14.84375 -3.421875 16.9375 -3.421875 C 19.519531 -3.421875 21.765625 -4.15625 23.671875 -5.625 Z M 25.3125 -2.15625 "/></g></g></g><g fill="#192536" fill-opacity="1"><g transform="translate(421.869043, 216.936438)"><g><path d="M 2.359375 -14.390625 C 2.359375 -17.015625 3.019531 -19.457031 4.34375 -21.71875 C 5.675781 -23.976562 7.460938 -25.78125 9.703125 -27.125 C 11.953125 -28.46875 14.40625 -29.140625 17.0625 -29.140625 C 19.6875 -29.140625 22.128906 -28.46875 24.390625 -27.125 C 26.648438 -25.78125 28.453125 -23.976562 29.796875 -21.71875 C 31.140625 -19.457031 31.8125 -17.015625 31.8125 -14.390625 C 31.8125 -11.734375 31.144531 -9.273438 29.8125 -7.015625 C 28.488281 -4.753906 26.6875 -2.96875 24.40625 -1.65625 C 22.132812 -0.34375 19.6875 0.3125 17.0625 0.3125 C 14.40625 0.3125 11.945312 -0.335938 9.6875 -1.640625 C 7.425781 -2.941406 5.640625 -4.710938 4.328125 -6.953125 C 3.015625 -9.203125 2.359375 -11.679688 2.359375 -14.390625 Z M 6.34375 -14.34375 C 6.34375 -12.382812 6.816406 -10.566406 7.765625 -8.890625 C 8.722656 -7.210938 10.03125 -5.878906 11.6875 -4.890625 C 13.351562 -3.910156 15.171875 -3.421875 17.140625 -3.421875 C 19.109375 -3.421875 20.90625 -3.90625 22.53125 -4.875 C 24.164062 -5.851562 25.457031 -7.1875 26.40625 -8.875 C 27.351562 -10.5625 27.828125 -12.398438 27.828125 -14.390625 C 27.828125 -16.378906 27.347656 -18.222656 26.390625 -19.921875 C 25.429688 -21.628906 24.128906 -22.972656 22.484375 -23.953125 C 20.835938 -24.941406 19.03125 -25.4375 17.0625 -25.4375 C 15.09375 -25.4375 13.285156 -24.9375 11.640625 -23.9375 C 9.992188 -22.9375 8.695312 -21.585938 7.75 -19.890625 C 6.8125 -18.191406 6.34375 -16.34375 6.34375 -14.34375 Z M 6.34375 -14.34375 "/></g></g></g><g fill="#192536" fill-opacity="1"><g transform="translate(456.025699, 216.936438)"><g><path d="M 29.25 -28.8125 L 29.25 0.953125 L 29.140625 0.953125 L 7.96875 -20.53125 L 8.046875 0 L 4.140625 0 L 4.140625 -29.6875 L 4.34375 -29.6875 L 25.46875 -7.96875 L 25.390625 -28.8125 Z M 29.25 -28.8125 "/></g></g></g><g fill="#192536" fill-opacity="1"><g transform="translate(489.425092, 216.936438)"><g><path d="M 21.171875 -28.8125 L 21.171875 -25.109375 L 13.4375 -25.109375 L 13.4375 0 L 9.5625 0 L 9.5625 -25.109375 L 2.03125 -25.109375 L 2.03125 -28.8125 Z M 21.171875 -28.8125 "/></g></g></g><g fill="#192536" fill-opacity="1"><g transform="translate(512.62133, 216.936438)"><g><path d="M 20.015625 0 L 13.234375 -10.640625 C 13.023438 -10.617188 12.707031 -10.609375 12.28125 -10.609375 L 8.015625 -10.609375 L 8.015625 0 L 4.140625 0 L 4.140625 -28.8125 L 11.84375 -28.8125 C 13.800781 -28.8125 15.550781 -28.46875 17.09375 -27.78125 C 18.632812 -27.09375 19.84375 -26.078125 20.71875 -24.734375 C 21.601562 -23.390625 22.046875 -21.773438 22.046875 -19.890625 C 22.046875 -18.109375 21.648438 -16.472656 20.859375 -14.984375 C 20.078125 -13.492188 18.878906 -12.363281 17.265625 -11.59375 L 24.515625 0 Z M 12.203125 -14.34375 C 14.273438 -14.34375 15.769531 -14.890625 16.6875 -15.984375 C 17.601562 -17.078125 18.0625 -18.328125 18.0625 -19.734375 C 18.0625 -20.578125 17.867188 -21.410156 17.484375 -22.234375 C 17.097656 -23.066406 16.484375 -23.753906 15.640625 -24.296875 C 14.804688 -24.835938 13.75 -25.109375 12.46875 -25.109375 L 8.015625 -25.109375 L 8.015625 -14.34375 Z M 12.203125 -14.34375 "/></g></g></g><g fill="#192536" fill-opacity="1"><g transform="translate(538.92634, 216.936438)"><g><path d="M 2.359375 -14.390625 C 2.359375 -17.015625 3.019531 -19.457031 4.34375 -21.71875 C 5.675781 -23.976562 7.460938 -25.78125 9.703125 -27.125 C 11.953125 -28.46875 14.40625 -29.140625 17.0625 -29.140625 C 19.6875 -29.140625 22.128906 -28.46875 24.390625 -27.125 C 26.648438 -25.78125 28.453125 -23.976562 29.796875 -21.71875 C 31.140625 -19.457031 31.8125 -17.015625 31.8125 -14.390625 C 31.8125 -11.734375 31.144531 -9.273438 29.8125 -7.015625 C 28.488281 -4.753906 26.6875 -2.96875 24.40625 -1.65625 C 22.132812 -0.34375 19.6875 0.3125 17.0625 0.3125 C 14.40625 0.3125 11.945312 -0.335938 9.6875 -1.640625 C 7.425781 -2.941406 5.640625 -4.710938 4.328125 -6.953125 C 3.015625 -9.203125 2.359375 -11.679688 2.359375 -14.390625 Z M 6.34375 -14.34375 C 6.34375 -12.382812 6.816406 -10.566406 7.765625 -8.890625 C 8.722656 -7.210938 10.03125 -5.878906 11.6875 -4.890625 C 13.351562 -3.910156 15.171875 -3.421875 17.140625 -3.421875 C 19.109375 -3.421875 20.90625 -3.90625 22.53125 -4.875 C 24.164062 -5.851562 25.457031 -7.1875 26.40625 -8.875 C 27.351562 -10.5625 27.828125 -12.398438 27.828125 -14.390625 C 27.828125 -16.378906 27.347656 -18.222656 26.390625 -19.921875 C 25.429688 -21.628906 24.128906 -22.972656 22.484375 -23.953125 C 20.835938 -24.941406 19.03125 -25.4375 17.0625 -25.4375 C 15.09375 -25.4375 13.285156 -24.9375 11.640625 -23.9375 C 9.992188 -22.9375 8.695312 -21.585938 7.75 -19.890625 C 6.8125 -18.191406 6.34375 -16.34375 6.34375 -14.34375 Z M 6.34375 -14.34375 "/></g></g></g><g fill="#192536" fill-opacity="1"><g transform="translate(573.082996, 216.936438)"><g><path d="M 8.015625 -28.8125 L 8.015625 -3.75 L 22.6875 -3.75 L 22.6875 0 L 4.140625 0 L 4.140625 -28.8125 Z M 8.015625 -28.8125 "/></g></g></g><g fill="#192536" fill-opacity="1"><g transform="translate(597.873478, 216.936438)"><g><path d="M 22.875 -28.8125 L 22.875 -25.109375 L 8.015625 -25.109375 L 8.015625 -16.34375 L 21.28125 -16.34375 L 21.28125 -12.640625 L 8.015625 -12.640625 L 8.015625 -3.75 L 23.4375 -3.75 L 23.4375 0 L 4.140625 0 L 4.140625 -28.8125 Z M 22.875 -28.8125 "/></g></g></g><g fill="#192536" fill-opacity="1"><g transform="translate(623.899476, 216.936438)"><g/></g></g><g fill="#192536" fill-opacity="1"><g transform="translate(636.493998, 216.936438)"><g><path d="M 19.25 -7.578125 L 8.171875 -7.578125 L 5.109375 0 L 1.28125 0 L 13.875 -30.015625 L 14.109375 -30.015625 L 26.703125 0 L 22.234375 0 Z M 17.9375 -10.921875 L 13.828125 -21.4375 L 9.5625 -10.921875 Z M 17.9375 -10.921875 "/></g></g></g><g fill="#192536" fill-opacity="1"><g transform="translate(664.433111, 216.936438)"><g><path d="M 7.65625 -10.203125 C 7.65625 -8.929688 7.957031 -7.78125 8.5625 -6.75 C 9.175781 -5.726562 10.007812 -4.914062 11.0625 -4.3125 C 12.113281 -3.71875 13.273438 -3.421875 14.546875 -3.421875 C 15.878906 -3.421875 17.082031 -3.710938 18.15625 -4.296875 C 19.226562 -4.890625 20.070312 -5.703125 20.6875 -6.734375 C 21.300781 -7.773438 21.609375 -8.929688 21.609375 -10.203125 L 21.609375 -28.8125 L 25.390625 -28.8125 L 25.390625 -10.078125 C 25.390625 -8.035156 24.910156 -6.222656 23.953125 -4.640625 C 22.992188 -3.054688 21.691406 -1.832031 20.046875 -0.96875 C 18.398438 -0.113281 16.566406 0.3125 14.546875 0.3125 C 12.554688 0.3125 10.734375 -0.113281 9.078125 -0.96875 C 7.429688 -1.832031 6.132812 -3.054688 5.1875 -4.640625 C 4.25 -6.222656 3.78125 -8.035156 3.78125 -10.078125 L 3.78125 -28.8125 L 7.65625 -28.8125 Z M 7.65625 -10.203125 "/></g></g></g><g fill="#192536" fill-opacity="1"><g transform="translate(693.607766, 216.936438)"><g><path d="M 21.171875 -28.8125 L 21.171875 -25.109375 L 13.4375 -25.109375 L 13.4375 0 L 9.5625 0 L 9.5625 -25.109375 L 2.03125 -25.109375 L 2.03125 -28.8125 Z M 21.171875 -28.8125 "/></g></g></g><g fill="#192536" fill-opacity="1"><g transform="translate(716.803977, 216.936438)"><g><path d="M 2.359375 -14.390625 C 2.359375 -17.015625 3.019531 -19.457031 4.34375 -21.71875 C 5.675781 -23.976562 7.460938 -25.78125 9.703125 -27.125 C 11.953125 -28.46875 14.40625 -29.140625 17.0625 -29.140625 C 19.6875 -29.140625 22.128906 -28.46875 24.390625 -27.125 C 26.648438 -25.78125 28.453125 -23.976562 29.796875 -21.71875 C 31.140625 -19.457031 31.8125 -17.015625 31.8125 -14.390625 C 31.8125 -11.734375 31.144531 -9.273438 29.8125 -7.015625 C 28.488281 -4.753906 26.6875 -2.96875 24.40625 -1.65625 C 22.132812 -0.34375 19.6875 0.3125 17.0625 0.3125 C 14.40625 0.3125 11.945312 -0.335938 9.6875 -1.640625 C 7.425781 -2.941406 5.640625 -4.710938 4.328125 -6.953125 C 3.015625 -9.203125 2.359375 -11.679688 2.359375 -14.390625 Z M 6.34375 -14.34375 C 6.34375 -12.382812 6.816406 -10.566406 7.765625 -8.890625 C 8.722656 -7.210938 10.03125 -5.878906 11.6875 -4.890625 C 13.351562 -3.910156 15.171875 -3.421875 17.140625 -3.421875 C 19.109375 -3.421875 20.90625 -3.90625 22.53125 -4.875 C 24.164062 -5.851562 25.457031 -7.1875 26.40625 -8.875 C 27.351562 -10.5625 27.828125 -12.398438 27.828125 -14.390625 C 27.828125 -16.378906 27.347656 -18.222656 26.390625 -19.921875 C 25.429688 -21.628906 24.128906 -22.972656 22.484375 -23.953125 C 20.835938 -24.941406 19.03125 -25.4375 17.0625 -25.4375 C 15.09375 -25.4375 13.285156 -24.9375 11.640625 -23.9375 C 9.992188 -22.9375 8.695312 -21.585938 7.75 -19.890625 C 6.8125 -18.191406 6.34375 -16.34375 6.34375 -14.34375 Z M 6.34375 -14.34375 "/></g></g></g><g fill="#192536" fill-opacity="1"><g transform="translate(750.960633, 216.936438)"><g><path d="M 32.796875 -29.734375 L 32.796875 0 L 28.984375 0 L 28.984375 -18.65625 L 18.375 -3.625 L 18.296875 -3.625 L 7.890625 -18.140625 L 7.890625 0 L 4.140625 0 L 4.140625 -29.734375 L 4.1875 -29.734375 L 18.375 -9.640625 L 32.765625 -29.734375 Z M 32.796875 -29.734375 "/></g></g></g><g fill="#192536" fill-opacity="1"><g transform="translate(787.907244, 216.936438)"><g><path d="M 19.25 -7.578125 L 8.171875 -7.578125 L 5.109375 0 L 1.28125 0 L 13.875 -30.015625 L 14.109375 -30.015625 L 26.703125 0 L 22.234375 0 Z M 17.9375 -10.921875 L 13.828125 -21.4375 L 9.5625 -10.921875 Z M 17.9375 -10.921875 "/></g></g></g><g fill="#192536" fill-opacity="1"><g transform="translate(815.846358, 216.936438)"><g><path d="M 21.171875 -28.8125 L 21.171875 -25.109375 L 13.4375 -25.109375 L 13.4375 0 L 9.5625 0 L 9.5625 -25.109375 L 2.03125 -25.109375 L 2.03125 -28.8125 Z M 21.171875 -28.8125 "/></g></g></g><g fill="#192536" fill-opacity="1"><g transform="translate(839.042568, 216.936438)"><g><path d="M 8.015625 -28.8125 L 8.015625 0 L 4.140625 0 L 4.140625 -28.8125 Z M 8.015625 -28.8125 "/></g></g></g><g fill="#192536" fill-opacity="1"><g transform="translate(851.19867, 216.936438)"><g><path d="M 26.234375 -3.75 L 26.234375 0 L 2.03125 0 L 8.8125 -10.078125 C 14.226562 -18.210938 17.601562 -23.222656 18.9375 -25.109375 L 6.9375 -25.109375 C 6.082031 -25.109375 5.320312 -25.328125 4.65625 -25.765625 C 4 -26.203125 3.671875 -26.796875 3.671875 -27.546875 L 3.671875 -30.25 L 7.25 -30.25 L 7.25 -29.734375 C 7.25 -29.304688 7.328125 -29.046875 7.484375 -28.953125 C 7.648438 -28.859375 8 -28.8125 8.53125 -28.8125 L 25.78125 -28.8125 L 8.6875 -3.75 Z M 26.234375 -3.75 "/></g></g></g><g fill="#192536" fill-opacity="1"><g transform="translate(879.616035, 216.936438)"><g><path d="M 19.25 -7.578125 L 8.171875 -7.578125 L 5.109375 0 L 1.28125 0 L 13.875 -30.015625 L 14.109375 -30.015625 L 26.703125 0 L 22.234375 0 Z M 17.9375 -10.921875 L 13.828125 -21.4375 L 9.5625 -10.921875 Z M 17.9375 -10.921875 "/></g></g></g><g fill="#192536" fill-opacity="1"><g transform="translate(907.555149, 216.936438)"><g><path d="M 4.140625 -28.8125 L 12.03125 -28.8125 C 15.625 -28.8125 18.59375 -28.097656 20.9375 -26.671875 C 23.289062 -25.253906 25.003906 -23.421875 26.078125 -21.171875 C 27.160156 -18.929688 27.703125 -16.566406 27.703125 -14.078125 C 27.703125 -11.285156 27.050781 -8.816406 25.75 -6.671875 C 24.445312 -4.535156 22.707031 -2.890625 20.53125 -1.734375 C 18.351562 -0.578125 15.988281 0 13.4375 0 L 4.140625 0 Z M 12.671875 -3.75 C 14.796875 -3.75 16.695312 -4.164062 18.375 -5 C 20.050781 -5.84375 21.359375 -7.0625 22.296875 -8.65625 C 23.242188 -10.25 23.71875 -12.144531 23.71875 -14.34375 C 23.71875 -16.601562 23.222656 -18.539062 22.234375 -20.15625 C 21.253906 -21.78125 19.945312 -23.007812 18.3125 -23.84375 C 16.675781 -24.6875 14.914062 -25.109375 13.03125 -25.109375 L 8.015625 -25.109375 L 8.015625 -3.75 Z M 12.671875 -3.75 "/></g></g></g><g fill="#192536" fill-opacity="1"><g transform="translate(937.606644, 216.936438)"><g><path d="M 2.359375 -14.390625 C 2.359375 -17.015625 3.019531 -19.457031 4.34375 -21.71875 C 5.675781 -23.976562 7.460938 -25.78125 9.703125 -27.125 C 11.953125 -28.46875 14.40625 -29.140625 17.0625 -29.140625 C 19.6875 -29.140625 22.128906 -28.46875 24.390625 -27.125 C 26.648438 -25.78125 28.453125 -23.976562 29.796875 -21.71875 C 31.140625 -19.457031 31.8125 -17.015625 31.8125 -14.390625 C 31.8125 -11.734375 31.144531 -9.273438 29.8125 -7.015625 C 28.488281 -4.753906 26.6875 -2.96875 24.40625 -1.65625 C 22.132812 -0.34375 19.6875 0.3125 17.0625 0.3125 C 14.40625 0.3125 11.945312 -0.335938 9.6875 -1.640625 C 7.425781 -2.941406 5.640625 -4.710938 4.328125 -6.953125 C 3.015625 -9.203125 2.359375 -11.679688 2.359375 -14.390625 Z M 6.34375 -14.34375 C 6.34375 -12.382812 6.816406 -10.566406 7.765625 -8.890625 C 8.722656 -7.210938 10.03125 -5.878906 11.6875 -4.890625 C 13.351562 -3.910156 15.171875 -3.421875 17.140625 -3.421875 C 19.109375 -3.421875 20.90625 -3.90625 22.53125 -4.875 C 24.164062 -5.851562 25.457031 -7.1875 26.40625 -8.875 C 27.351562 -10.5625 27.828125 -12.398438 27.828125 -14.390625 C 27.828125 -16.378906 27.347656 -18.222656 26.390625 -19.921875 C 25.429688 -21.628906 24.128906 -22.972656 22.484375 -23.953125 C 20.835938 -24.941406 19.03125 -25.4375 17.0625 -25.4375 C 15.09375 -25.4375 13.285156 -24.9375 11.640625 -23.9375 C 9.992188 -22.9375 8.695312 -21.585938 7.75 -19.890625 C 6.8125 -18.191406 6.34375 -16.34375 6.34375 -14.34375 Z M 6.34375 -14.34375 "/></g></g></g></svg>